# xmcd
#
# Track frame offsets:
#	150
#	16180
#	32521
#	53826
#	71591
#	91861
#	107972
#	126866
#	147488
#	162924
#
# Disc length: 2375 seconds
#
# Revision: 17
# Processed by: cddbd v1.5.2PL0 Copyright (c) Steve Scherf et al.
# Submitted via: EasyCDDAExtractor 10.0.2.1
#
DISCID=8209450a
DTITLE=สิงโต เดอะสตาร์ - สิงโต
DYEAR=2552
DGENRE=Pop
TTITLE0=เพลงนี้
TTITLE1=ไม่อยากได้ยินเสียงเธอ
TTITLE2=ไม่มีประสบการณ์
TTITLE3=หัวก้อย
TTITLE4=อย่าเอาเพื่อนเป็นแฟน
TTITLE5=รักแท้แต่ไม่กล้าบอก
TTITLE6=สะดุดรัก
TTITLE7=แค่ได้รัก
TTITLE8=แม่เอยแม่จ๋า
TTITLE9=ตังเก
EXTD=
EXTT0=
EXTT1=
EXTT2=
EXTT3=
EXTT4=
EXTT5=
EXTT6=
EXTT7=
EXTT8=
EXTT9=
PLAYORDER=
